<svg width="15" height="15" viewBox="0 0 15 15" fill="none" xmlns="http://www.w3.org/2000/svg">
<path d="M5.59974 1.72038L3.28281 4.49993H0.625C0.279687 4.49993 0 4.83554 0 5.2499V9.74969C0 10.1637 0.279687 10.4997 0.625 10.4997H3.28281L5.59974 13.2792C5.99115 13.7489 6.66667 13.4189 6.66667 12.7489V2.25066C6.66667 1.58007 5.99062 1.25134 5.59974 1.72038ZM11.6758 0.124201C11.3849 -0.10485 10.994 -0.00829226 10.8031 0.341379C10.612 0.690425 10.6932 1.15947 10.9841 1.38852C12.7099 2.74752 13.7398 5.0321 13.7398 7.50011C13.7398 9.96811 12.7099 12.2527 10.9841 13.6117C10.6932 13.8404 10.612 14.3098 10.8031 14.6585C10.9865 14.9932 11.3742 15.1135 11.6758 14.8757C13.757 13.2364 15 10.4787 15 7.49979C15 4.52087 13.757 1.7635 11.6758 0.124201ZM12.5 7.49979C12.5 5.51457 11.6651 3.68935 10.2664 2.61752C9.975 2.39441 9.58854 2.49815 9.40391 2.85064C9.21927 3.20312 9.30547 3.66966 9.59687 3.89309C10.632 4.68649 11.25 6.03455 11.25 7.49979C11.25 8.96504 10.632 10.3131 9.59687 11.1065C9.30547 11.3296 9.21927 11.7962 9.40391 12.1489C9.57344 12.4727 9.95391 12.6221 10.2664 12.3821C11.6651 11.3102 12.5 9.48532 12.5 7.49979ZM8.80807 5.09772C8.50651 4.89991 8.12604 5.03022 7.95885 5.39302C7.79245 5.75581 7.9026 6.21173 8.20495 6.41203C8.54115 6.63358 8.75 7.05075 8.75 7.49979C8.75 7.94915 8.54115 8.366 8.20521 8.58755C7.90286 8.78786 7.79271 9.24377 7.95911 9.60657C8.12656 9.97093 8.50729 10.1003 8.80833 9.90187C9.54349 9.41595 10.0003 8.49568 10.0003 7.49948C10.0003 6.50328 9.54349 5.58332 8.80807 5.09772Z" fill="black"/>
</svg>
